<?xml version="1.0" standalone="no"?>
<!DOCTYPE svg PUBLIC "-//W3C//DTD SVG 1.1//EN" "http://www.w3.org/Graphics/SVG/1.1/DTD/svg11.dtd" >
<svg xmlns="http://www.w3.org/2000/svg" xmlns:xlink="http://www.w3.org/1999/xlink" version="1.1">
<metadata>
Created by FontForge 20190801 at Mon Apr 30 04:26:27 2007
 By Unknown
Copyright 1995 Image Club Graphics, Inc.
</metadata>
<defs>
<font id="SerpentineSansICG-BoldOblique" horiz-adv-x="780" >
  <font-face 
    font-family="SerpentineSansICG"
    font-weight="700"
    font-style="oblique"
    font-stretch="normal"
    units-per-em="1000"
    panose-1="0 0 0 0 0 0 0 0 0 0"
    ascent="800"
    descent="-200"
    x-height="470"
    cap-height="640"
    bbox="-217 -233 1232 898"
    underline-thickness="50"
    underline-position="-125"
    slope="-11"
    stemh="106"
    stemv="244"
    unicode-range="U+0020-FB02"
  />
<missing-glyph horiz-adv-x="1000" 
 />
    <glyph glyph-name=".notdef" horiz-adv-x="1000" 
 />
    <glyph glyph-name="space" unicode=" " horiz-adv-x="360" 
 />
    <glyph glyph-name="exclam" unicode="!" horiz-adv-x="326" 
d="M441 640l-65 -257l-67 -177h-190l21 177l65 257h236zM323 168l-42 -168h-236l42 168h236z" />
    <glyph glyph-name="quotedbl" unicode="&#x22;" horiz-adv-x="375" 
d="M490 640l-68 -272h-112l68 272h112zM317 640l-68 -272h-112l68 272h112z" />
    <glyph glyph-name="numbersign" unicode="#" horiz-adv-x="616" 
d="M685 457l-33 -82h-99l-44 -110h99l-32 -82h-99l-74 -183h-94l74 183h-99l-74 -183h-94l74 183h-99l32 82h99l44 110h-99l34 82h98l74 183h94l-74 -183h99l74 183h94l-74 -183h99zM459 375h-99l-44 -110h99z" />
    <glyph glyph-name="dollar" unicode="$" horiz-adv-x="732" 
d="M825 586l-23 -92h-272l-16 -63h144c88 0 127 -38 110 -107l-34 -134c-19 -75 -69 -122 -154 -122h-156l-25 -99h-78l25 99h-284l23 92h284l18 71h-142c-101 0 -131 44 -112 120l29 119c17 71 66 116 155 116h158l23 92h78l-23 -92h272zM452 494h-66c-12 0 -21 -6 -24 -16
l-7 -28c-3 -13 2 -19 14 -19h67zM542 213c3 12 -2 18 -16 18h-61l-18 -71h61c14 0 22 6 25 18z" />
    <glyph glyph-name="percent" unicode="%" horiz-adv-x="1018" 
d="M1033 241l-38 -154c-16 -66 -49 -87 -118 -87h-176c-69 0 -90 21 -74 87l38 154c16 66 49 87 118 87h176c69 0 90 -21 74 -87zM920 640l-522 -640h-140l522 640h140zM551 553l-39 -154c-17 -66 -48 -87 -117 -87h-176c-69 0 -92 21 -75 87l39 154c17 66 49 87 118 87h176
c69 0 91 -21 74 -87zM890 238c3 13 3 22 -14 22h-44c-17 0 -23 -9 -26 -22l-37 -148c-3 -13 -2 -22 15 -22h44c17 0 22 9 25 22zM408 550c3 13 3 22 -14 22h-44c-17 0 -23 -9 -26 -22l-37 -148c-3 -13 -2 -22 15 -22h44c17 0 22 9 25 22z" />
    <glyph glyph-name="ampersand" unicode="&#x26;" horiz-adv-x="903" 
d="M884 106l-26 -106h-272c-41 0 -65 29 -73 58c-33 -31 -65 -58 -141 -58h-171c-95 0 -145 45 -121 140l25 99c25 101 78 139 147 139h64l-49 83c-10 16 -17 43 -10 73c17 66 61 106 151 106h439l-27 -106h-239c-20 0 -34 -4 -38 -20c-3 -11 6 -29 14 -43l106 -178l57 47
c15 12 23 31 28 56l4 19h106l-13 -53c-7 -30 -22 -54 -45 -73l-91 -75l41 -66c14 -23 40 -42 79 -42h55zM467 133l-109 177l-41 -167c-6 -26 0 -37 30 -37h57c29 0 48 14 63 27z" />
    <glyph glyph-name="quoteright" unicode="&#x2019;" horiz-adv-x="326" 
d="M441 640l-39 -153l-168 -149h-85l103 134h-89l42 168h236z" />
    <glyph glyph-name="parenleft" unicode="(" horiz-adv-x="412" 
d="M527 640l-27 -106h-36c-39 0 -55 -21 -65 -60l-103 -414c-10 -39 -4 -60 35 -60h36l-26 -106h-140c-122 0 -167 61 -142 162l105 422c25 101 101 162 223 162h140z" />
    <glyph glyph-name="parenright" unicode=")" horiz-adv-x="412" 
d="M486 478l-105 -422c-25 -101 -100 -162 -222 -162h-140l26 106h36c39 0 55 21 65 60l103 414c10 39 4 60 -35 60h-36l27 106h140c122 0 166 -61 141 -162z" />
    <glyph glyph-name="asterisk" unicode="*" horiz-adv-x="410" 
d="M494 517l-16 -64h-105l30 -91l-64 -32l-29 90l-75 -90l-48 32l75 91h-104l16 64h105l-30 91l64 32l29 -90l75 90l48 -32l-76 -91h105z" />
    <glyph glyph-name="plus" unicode="+" horiz-adv-x="410" 
d="M423 232l-16 -64h-128l-32 -128h-64l32 128h-128l16 64h128l32 128h64l-32 -128h128z" />
    <glyph glyph-name="comma" unicode="," horiz-adv-x="326" 
d="M323 168l-38 -153l-168 -149h-85l102 134h-89l42 168h236z" />
    <glyph glyph-name="hyphen" unicode="-" horiz-adv-x="442" 
d="M477 319l-42 -168h-352l42 168h352z" />
    <glyph glyph-name="period" unicode="." horiz-adv-x="326" 
d="M323 168l-42 -168h-236l42 168h236z" />
    <glyph glyph-name="slash" unicode="/" horiz-adv-x="438" 
d="M553 640l-404 -640h-104l404 640h104z" />
    <glyph glyph-name="zero" unicode="0" 
d="M850 463l-71 -286c-25 -100 -85 -177 -201 -177h-376c-116 0 -138 77 -113 177l71 286c25 100 86 177 202 177h376c116 0 137 -77 112 -177zM614 495c6 23 0 39 -36 39h-110c-36 0 -50 -16 -56 -39l-87 -350c-6 -23 0 -39 36 -39h110c36 0 50 16 56 39z" />
    <glyph glyph-name="one" unicode="1" horiz-adv-x="425" 
d="M540 640l-160 -640h-244l111 445h-91l28 113l291 82h65z" />
    <glyph glyph-name="two" unicode="2" horiz-adv-x="748" 
d="M828 500l-35 -139c-21 -83 -65 -117 -155 -121l-263 -13c-20 -1 -32 -14 -39 -40l-21 -81h414l-26 -106h-658l72 290c22 89 60 125 153 130l279 15c19 1 29 12 34 30l10 40c5 20 -11 29 -36 29h-369l27 106h480c116 0 159 -36 133 -140z" />
    <glyph glyph-name="three" unicode="3" horiz-adv-x="728" 
d="M813 522l-29 -115c-17 -66 -94 -79 -168 -79l-1 -2c116 -3 143 -27 126 -93l-29 -115c-19 -77 -81 -118 -183 -118h-484l26 106h357c30 0 40 12 46 36l24 94c7 26 1 36 -28 36h-233l26 106h233c29 0 40 10 46 36l21 84c6 24 2 36 -28 36h-357l27 106h484
c102 0 143 -41 124 -118z" />
    <glyph glyph-name="four" unicode="4" horiz-adv-x="865" 
d="M898 312l-42 -168h-109l-36 -144h-240l36 144h-426l39 156l468 340h283l-82 -328h109zM601 523l-301 -211h249z" />
    <glyph glyph-name="five" unicode="5" horiz-adv-x="746" 
d="M861 640l-27 -106h-412l-31 -126h256c107 0 144 -46 121 -138l-32 -129c-24 -96 -84 -141 -187 -141h-504l26 106h370c35 0 45 11 52 38l30 119c8 30 2 39 -37 39h-366l85 338h656z" />
    <glyph glyph-name="six" unicode="6" horiz-adv-x="762" 
d="M867 640l-27 -106h-365c-37 0 -55 -9 -64 -43l-31 -124h2c24 29 39 47 74 47h210c79 0 142 -51 121 -133l-37 -148c-20 -79 -103 -133 -187 -133h-366c-78 0 -139 52 -119 133l93 373c20 81 104 134 192 134h504zM541 273c7 26 -1 35 -29 35h-108c-28 0 -40 -9 -47 -35
l-33 -132c-6 -26 1 -35 29 -35h108c28 0 41 9 47 35z" />
    <glyph glyph-name="seven" unicode="7" horiz-adv-x="744" 
d="M859 640l-27 -108c-151 -132 -330 -306 -432 -532h-276c80 155 297 395 460 534h-406l27 106h654z" />
    <glyph glyph-name="eight" unicode="8" horiz-adv-x="769" 
d="M852 512l-16 -63c-19 -73 -63 -109 -181 -115v-2c101 0 144 -37 125 -109l-25 -97c-21 -80 -84 -126 -167 -126h-407c-83 0 -126 46 -105 126l25 97c19 72 78 109 179 109v2c-114 6 -142 42 -123 115l16 63c22 85 90 128 168 128h407c78 0 126 -43 104 -128zM603 495
c7 30 -4 39 -29 39h-113c-25 0 -42 -9 -49 -39l-17 -69c-7 -29 3 -40 29 -40h113c26 0 42 11 49 40zM540 241c7 27 -1 39 -29 39h-113c-28 0 -42 -12 -49 -39l-24 -96c-6 -26 0 -39 29 -39h113c29 0 43 13 49 39z" />
    <glyph glyph-name="nine" unicode="9" horiz-adv-x="762" 
d="M843 507l-93 -373c-20 -81 -103 -134 -191 -134h-504l26 106h365c37 0 56 9 64 43l31 124h-2c-23 -29 -39 -47 -74 -47h-210c-79 0 -140 51 -120 133l36 148c19 79 104 133 188 133h366c78 0 138 -52 118 -133zM597 499c7 26 -1 35 -29 35h-108c-28 0 -40 -9 -47 -35
l-33 -132c-6 -26 2 -35 30 -35h108c28 0 40 9 46 35z" />
    <glyph glyph-name="colon" unicode=":" horiz-adv-x="326" 
d="M394 454l-42 -168h-236l42 168h236zM323 168l-42 -168h-236l42 168h236z" />
    <glyph glyph-name="semicolon" unicode=";" horiz-adv-x="326" 
d="M394 454l-42 -168h-236l42 168h236zM323 168l-38 -153l-168 -149h-85l102 134h-89l42 168h236z" />
    <glyph glyph-name="less" unicode="&#x3c;" horiz-adv-x="450" 
d="M501 384l-17 -69l-301 -115l243 -115l-17 -69l-322 154l16 61z" />
    <glyph glyph-name="equal" unicode="=" horiz-adv-x="450" 
d="M482 308l-16 -64h-360l16 64h360zM444 156l-16 -64h-360l16 64h360z" />
    <glyph glyph-name="greater" unicode="&#x3e;" horiz-adv-x="450" 
d="M462 230l-15 -60l-398 -154l17 69l299 115l-241 115l17 69z" />
    <glyph glyph-name="question" unicode="?" horiz-adv-x="731" 
d="M812 506l-21 -85c-17 -70 -84 -125 -152 -125h-92c-31 0 -45 -7 -53 -38l-13 -52h-244l20 79c21 83 61 121 150 121h88c36 0 53 19 59 42l13 54c7 29 -5 46 -46 46h-339l23 92h471c101 0 159 -43 136 -134zM464 168l-42 -168h-236l42 168h236z" />
    <glyph glyph-name="at" unicode="@" horiz-adv-x="687" 
d="M734 370c-32 -129 -164 -234 -247 -234c-33 0 -59 27 -67 59c-25 -26 -64 -59 -108 -59c-67 0 -105 66 -84 150c30 121 141 220 245 220c30 0 52 -13 59 -36l15 28h103l-131 -263c-5 -9 -10 -20 -13 -30c-2 -7 -3 -14 4 -14c43 0 142 74 168 179c32 127 -34 216 -174 216
c-135 0 -286 -112 -324 -265c-36 -145 49 -265 192 -265c101 0 185 50 237 114h64c-42 -60 -145 -170 -315 -170c-179 0 -275 152 -233 321c40 159 206 319 393 319c177 0 254 -119 216 -270zM491 402c5 19 1 54 -22 54c-55 0 -118 -90 -145 -199c-6 -26 -14 -66 16 -66
c51 0 132 135 151 211z" />
    <glyph glyph-name="A" unicode="A" horiz-adv-x="892" 
d="M853 0h-259l-30 172h-281l-127 -172h-118l466 640h244zM548 278l-37 216l-152 -216h189z" />
    <glyph glyph-name="B" unicode="B" horiz-adv-x="770" 
d="M853 513l-21 -83c-20 -79 -82 -91 -163 -97v-2c84 -11 133 -19 116 -89l-28 -115c-20 -81 -75 -127 -197 -127h-505l160 640h505c117 0 155 -41 133 -127zM606 500c7 27 -2 34 -27 34h-147l-37 -150h147c27 0 37 9 44 36zM542 243c8 30 -3 35 -27 35h-147l-43 -172h147
c25 0 37 7 44 35z" />
    <glyph glyph-name="C" unicode="C" horiz-adv-x="650" 
d="M770 640l-27 -106h-273c-35 0 -51 -13 -58 -40l-87 -348c-7 -27 3 -40 38 -40h273l-26 -106h-407c-109 0 -142 66 -114 177l71 286c28 111 94 177 203 177h407z" />
    <glyph glyph-name="D" unicode="D" horiz-adv-x="761" 
d="M831 463l-71 -286c-28 -111 -93 -177 -202 -177h-503l160 640h503c109 0 141 -66 113 -177zM595 494c7 27 -3 40 -38 40h-125l-107 -428h125c35 0 51 13 58 40z" />
    <glyph glyph-name="E" unicode="E" horiz-adv-x="650" 
d="M769 640l-27 -106h-310l-37 -150h284l-27 -106h-284l-43 -172h310l-26 -106h-554l160 640h554z" />
    <glyph glyph-name="F" unicode="F" horiz-adv-x="650" 
d="M769 640l-27 -106h-310l-37 -150h284l-27 -106h-284l-69 -278h-244l160 640h554z" />
    <glyph glyph-name="G" unicode="G" horiz-adv-x="766" 
d="M854 640l-27 -106h-357c-35 0 -51 -13 -58 -40l-87 -348c-7 -27 3 -40 38 -40h83c32 0 50 12 57 40l33 132h-132l27 106h376l-96 -384h-197l14 58h-2c-20 -38 -38 -58 -103 -58h-220c-109 0 -142 66 -114 177l71 286c28 111 94 177 203 177h491z" />
    <glyph glyph-name="H" unicode="H" 
d="M885 640l-160 -640h-244l69 278h-182l-69 -278h-244l160 640h244l-64 -256h182l64 256h244z" />
    <glyph glyph-name="I" unicode="I" horiz-adv-x="354" 
d="M459 640l-160 -640h-244l160 640h244z" />
    <glyph glyph-name="J" unicode="J" horiz-adv-x="630" 
d="M735 640l-116 -463c-29 -115 -91 -177 -232 -177h-355l26 106h237c42 0 67 17 80 71l116 463h244z" />
    <glyph glyph-name="K" unicode="K" horiz-adv-x="820" 
d="M856 640l-225 -189l153 -451h-284l-75 271l-75 -65l-51 -206h-244l160 640h244l-72 -287l317 287h152z" />
    <glyph glyph-name="L" unicode="L" horiz-adv-x="640" 
d="M635 106l-26 -106h-554l160 640h244l-134 -534h310z" />
    <glyph glyph-name="M" unicode="M" horiz-adv-x="982" 
d="M1087 640l-160 -640h-244l126 504h-2l-303 -504h-169l-46 504h-2l-126 -504h-106l160 640h312l31 -363h2l221 363h306z" />
    <glyph glyph-name="N" unicode="N" horiz-adv-x="798" 
d="M903 640l-160 -640h-316l-132 530h-2l-132 -530h-106l160 640h319l129 -522h3l131 522h106z" />
    <glyph glyph-name="O" unicode="O" 
d="M850 463l-71 -286c-28 -111 -93 -177 -202 -177h-374c-109 0 -142 66 -114 177l71 286c28 111 94 177 203 177h374c109 0 141 -66 113 -177zM614 494c7 27 -3 40 -38 40h-106c-35 0 -51 -13 -58 -40l-87 -348c-7 -27 3 -40 38 -40h106c35 0 51 13 58 40z" />
    <glyph glyph-name="P" unicode="P" horiz-adv-x="760" 
d="M836 487l-28 -112c-19 -78 -67 -147 -187 -147h-265l-57 -228h-244l160 640h502c105 0 147 -41 119 -153zM591 481c10 42 3 53 -27 53h-132l-50 -200h132c32 0 44 14 53 50z" />
    <glyph glyph-name="Q" unicode="Q" 
d="M850 463l-71 -286c-28 -111 -93 -177 -202 -177h-35l26 -82h-97l-26 82h-242c-109 0 -142 66 -114 177l71 286c28 111 94 177 203 177h374c109 0 141 -66 113 -177zM614 494c7 27 -3 40 -38 40h-106c-35 0 -51 -13 -58 -40l-87 -348c-7 -27 3 -40 38 -40h48l-29 94h97
l26 -86c12 6 18 17 22 32z" />
    <glyph glyph-name="R" unicode="R" horiz-adv-x="766" 
d="M845 498l-31 -123c-14 -56 -42 -97 -122 -97l65 -278h-267l-47 278h-75l-69 -278h-244l160 640h508c105 0 149 -34 122 -142zM601 498c7 30 -1 36 -27 36h-142l-37 -150h142c29 0 39 10 45 36z" />
    <glyph glyph-name="S" unicode="S" horiz-adv-x="706" 
d="M821 640l-27 -106h-337c-33 0 -44 -6 -49 -26l-11 -41c-5 -19 4 -25 37 -25h182c93 0 147 -36 125 -123l-42 -168c-25 -99 -83 -151 -182 -151h-472l26 106h342c31 0 40 7 45 28l11 44c6 22 -3 28 -34 28h-209c-92 0 -121 35 -96 134l38 153c20 79 76 147 167 147h486z
" />
    <glyph glyph-name="T" unicode="T" horiz-adv-x="708" 
d="M838 640l-27 -106h-202l-133 -534h-244l133 534h-202l27 106h648z" />
    <glyph glyph-name="U" unicode="U" horiz-adv-x="790" 
d="M895 640l-113 -450c-34 -136 -92 -190 -214 -190h-346c-98 0 -154 54 -120 190l113 450h244l-119 -476c-10 -41 5 -58 42 -58h216c43 0 59 9 70 52l121 482h106z" />
    <glyph glyph-name="V" unicode="V" horiz-adv-x="829" 
d="M950 640l-407 -640h-273l-73 640h260l56 -504l320 504h117z" />
    <glyph glyph-name="W" unicode="W" horiz-adv-x="1083" 
d="M1201 640l-315 -640h-236l-3 424h-2l-209 -424h-233l-4 640h245l-4 -413h2l203 413h244l1 -414h2l202 414h107z" />
    <glyph glyph-name="X" unicode="X" horiz-adv-x="855" 
d="M972 640l-332 -272l179 -368h-294l-98 194l-236 -194h-148l342 280l-184 360h307l87 -186l231 186h146z" />
    <glyph glyph-name="Y" unicode="Y" horiz-adv-x="825" 
d="M939 640l-353 -403l-59 -237h-244l62 250l-155 390h289l103 -266l233 266h124z" />
    <glyph glyph-name="Z" unicode="Z" horiz-adv-x="715" 
d="M855 640l-464 -534h289l-26 -106h-634l462 534h-285l27 106h631z" />
    <glyph glyph-name="bracketleft" unicode="[" horiz-adv-x="405" 
d="M520 640l-27 -106h-88l-133 -534h88l-26 -106h-315l186 746h315z" />
    <glyph glyph-name="backslash" unicode="\" horiz-adv-x="438" 
d="M393 0h-104l-84 640h104z" />
    <glyph glyph-name="bracketright" unicode="]" horiz-adv-x="405" 
d="M520 640l-186 -746h-315l26 106h88l133 534h-88l27 106h315z" />
    <glyph glyph-name="asciicircum" unicode="^" horiz-adv-x="426" 
d="M461 320h-67l-43 234l-160 -234h-66l218 320h60z" />
    <glyph glyph-name="underscore" unicode="_" horiz-adv-x="360" 
d="M334 -104l-12 -48h-360l12 48h360z" />
    <glyph glyph-name="quoteleft" unicode="&#x2018;" horiz-adv-x="326" 
d="M423 648l-103 -134h89l-42 -168h-236l38 153l169 149h85z" />
    <glyph glyph-name="a" unicode="a" horiz-adv-x="697" 
d="M732 302l-75 -302h-225l13 52h-2c-19 -41 -48 -52 -102 -52h-178c-94 0 -125 38 -99 138l11 43c25 97 70 137 164 137h261l8 30c5 18 -5 30 -29 30h-333l23 92h450c97 0 145 -39 113 -168zM477 226h-104c-42 0 -53 -12 -60 -39l-15 -57c-7 -27 1 -38 39 -38h64
c38 0 46 14 57 57z" />
    <glyph glyph-name="b" unicode="b" horiz-adv-x="712" 
d="M764 330l-47 -188c-20 -81 -77 -142 -179 -142h-204c-28 0 -36 29 -41 50l-12 -50h-231l160 640h236l-54 -216h2c16 29 37 46 71 46h190c98 0 130 -57 109 -140zM532 344c6 23 -1 34 -26 34h-94c-22 0 -34 -11 -40 -34l-55 -218c-6 -23 2 -34 24 -34h94c25 0 36 11 42 34
z" />
    <glyph glyph-name="c" unicode="c" horiz-adv-x="590" 
d="M683 470l-23 -92h-251c-32 0 -53 -17 -61 -48l-47 -190c-8 -31 5 -48 37 -48h251l-23 -92h-392c-98 0 -130 57 -109 140l47 190c21 83 81 140 179 140h392z" />
    <glyph glyph-name="d" unicode="d" horiz-adv-x="712" 
d="M822 640l-160 -640h-229l12 50c-15 -21 -36 -50 -67 -50h-204c-102 0 -129 61 -109 142l47 188c21 83 81 140 179 140h190c34 0 47 -17 49 -46h2l54 216h236zM512 344c6 23 -2 34 -24 34h-94c-25 0 -36 -11 -42 -34l-55 -218c-6 -23 1 -34 26 -34h94c22 0 34 11 40 34z
" />
    <glyph glyph-name="e" unicode="e" horiz-adv-x="691" 
d="M745 336l-38 -152h-395l-11 -44c-8 -31 5 -48 37 -48h336l-23 -92h-490c-98 0 -120 43 -96 140l49 196c22 87 66 134 164 134h369c98 0 120 -47 98 -134zM516 341c7 27 0 37 -27 37h-93c-27 0 -38 -10 -45 -37l-16 -65h165z" />
    <glyph glyph-name="f" unicode="f" horiz-adv-x="583" 
d="M712 640l-23 -92h-159c-27 0 -40 -9 -47 -35l-11 -43h188l-23 -92h-188l-94 -378h-236l94 378h-99l23 92h99l11 43c21 83 85 127 160 127h305z" />
    <glyph glyph-name="g" unicode="g" horiz-adv-x="702" 
d="M779 470l-118 -476c-30 -120 -87 -172 -197 -172h-438l23 92h299c39 0 59 9 72 62l17 70h-2c-16 -29 -37 -46 -71 -46h-190c-98 0 -130 57 -109 140l47 188c20 81 77 142 179 142h195c42 0 58 -20 57 -50h2l12 50h222zM512 344c6 23 -2 34 -24 34h-94
c-25 0 -36 -11 -42 -34l-55 -218c-6 -23 1 -34 26 -34h94c22 0 34 11 40 34z" />
    <glyph glyph-name="h" unicode="h" horiz-adv-x="726" 
d="M762 304l-76 -304h-236l86 344c5 21 -1 34 -26 34h-98c-19 0 -34 -11 -40 -34l-86 -344h-236l160 640h236l-54 -216h2c20 25 37 46 64 46h190c108 0 139 -67 114 -166z" />
    <glyph glyph-name="i" unicode="i" horiz-adv-x="336" 
d="M446 640l-31 -124h-236l31 124h236zM403 470l-117 -470h-236l117 470h236z" />
    <glyph glyph-name="j" unicode="j" horiz-adv-x="336" 
d="M446 640l-31 -124h-236l31 124h236zM403 470l-120 -484c-30 -120 -69 -164 -174 -164h-326l23 92h175c39 0 52 16 61 54l125 502h236z" />
    <glyph glyph-name="k" unicode="k" horiz-adv-x="735" 
d="M756 470l-167 -110l119 -360h-273l-54 219l-48 -32l-47 -187h-236l160 640h236l-84 -335l244 165h150z" />
    <glyph glyph-name="l" unicode="l" horiz-adv-x="336" 
d="M446 640l-160 -640h-236l160 640h236z" />
    <glyph glyph-name="m" unicode="m" horiz-adv-x="1000" 
d="M1031 286l-71 -286h-216l87 347c5 21 -2 31 -27 31h-70c-19 0 -33 -8 -39 -31l-87 -347h-216l87 347c5 21 -2 31 -27 31h-70c-19 0 -33 -8 -39 -31l-87 -347h-216l91 364c11 43 26 106 26 106h204l-14 -57h2c22 38 39 57 74 57h219c57 0 60 -24 62 -51h2
c13 27 31 51 66 51h166c108 0 122 -68 93 -184z" />
    <glyph glyph-name="n" unicode="n" horiz-adv-x="716" 
d="M752 304l-76 -304h-236l86 344c5 21 -1 34 -26 34h-98c-19 0 -34 -11 -40 -34l-86 -344h-236l117 470h225l-12 -49h2c19 29 44 49 76 49h190c108 0 139 -67 114 -166z" />
    <glyph glyph-name="o" unicode="o" horiz-adv-x="700" 
d="M753 334l-49 -198c-21 -85 -63 -136 -164 -136h-380c-101 0 -117 51 -96 136l49 198c21 85 63 136 164 136h380c101 0 117 -51 96 -136zM520 343c6 24 -2 35 -25 35h-102c-23 0 -35 -11 -41 -35l-54 -216c-6 -24 1 -35 24 -35h102c23 0 36 11 42 35z" />
    <glyph glyph-name="p" unicode="p" horiz-adv-x="702" 
d="M754 328l-47 -188c-21 -83 -81 -140 -179 -140h-190c-34 0 -47 17 -49 46h-2l-55 -224h-236l161 648h223l-12 -50c19 25 37 50 73 50h204c102 0 129 -61 109 -142zM522 344c6 23 -1 34 -26 34h-94c-22 0 -34 -11 -40 -34l-55 -218c-6 -23 2 -34 24 -34h94
c25 0 36 11 42 34z" />
    <glyph glyph-name="q" unicode="q" horiz-adv-x="702" 
d="M779 470l-161 -648h-236l55 224h-2c-16 -29 -37 -46 -71 -46h-190c-98 0 -130 57 -109 140l47 188c20 81 77 142 179 142h204c36 0 42 -25 49 -50l12 50h223zM512 344c6 23 -2 34 -24 34h-94c-25 0 -36 -11 -42 -34l-55 -218c-6 -23 1 -34 26 -34h94c22 0 34 11 40 34z
" />
    <glyph glyph-name="r" unicode="r" horiz-adv-x="526" 
d="M613 470l-32 -131h-119c-79 0 -106 -18 -120 -73l-66 -266h-236l117 470h218l-19 -76h2c38 59 73 76 140 76h115z" />
    <glyph glyph-name="s" unicode="s" horiz-adv-x="644" 
d="M731 470l-21 -86h-333c-24 0 -33 -7 -36 -19l-4 -17c-3 -14 6 -18 26 -18h208c81 0 117 -34 96 -118l-22 -88c-18 -71 -81 -124 -166 -124h-449l21 86h335c22 0 31 9 35 23l4 15c4 14 -3 22 -24 22h-214c-87 0 -108 46 -91 117l22 90c18 72 94 117 173 117h440z" />
    <glyph glyph-name="t" unicode="t" horiz-adv-x="600" 
d="M660 470l-23 -92h-188l-62 -251c-6 -26 2 -35 29 -35h174l-23 -92h-320c-75 0 -116 51 -95 134l61 244h-99l23 92h99l26 102h236l-26 -102h188z" />
    <glyph glyph-name="u" unicode="u" horiz-adv-x="716" 
d="M793 470l-117 -470h-225l12 49h-2c-19 -29 -44 -49 -76 -49h-190c-108 0 -139 67 -114 166l76 304h236l-86 -344c-5 -21 1 -34 26 -34h98c19 0 34 11 40 34l86 344h236z" />
    <glyph glyph-name="v" unicode="v" horiz-adv-x="702" 
d="M791 470l-309 -470h-251l-90 470h258l61 -348l229 348h102z" />
    <glyph glyph-name="w" unicode="w" horiz-adv-x="988" 
d="M1069 470l-232 -470h-244l-6 358h-2l-178 -358h-247l-11 470h239l10 -300h2l150 300h271l6 -300h2l154 300h86z" />
    <glyph glyph-name="x" unicode="x" horiz-adv-x="754" 
d="M832 470l-265 -193l155 -277h-304l-68 127l-182 -127h-136l279 200l-150 270h301l64 -118l160 118h146z" />
    <glyph glyph-name="y" unicode="y" horiz-adv-x="706" 
d="M783 470l-127 -511c-23 -92 -78 -137 -167 -137h-483l23 92h336c30 0 45 8 52 35l24 97h-2c-15 -30 -38 -46 -78 -46h-166c-108 0 -139 67 -114 166l76 304h236l-86 -344c-5 -21 1 -34 26 -34h88c19 0 34 11 40 34l86 344h236z" />
    <glyph glyph-name="z" unicode="z" horiz-adv-x="710" 
d="M776 470l-365 -378h287l-23 -92h-640l374 378h-273l23 92h617z" />
    <glyph glyph-name="braceleft" unicode="{" horiz-adv-x="502" 
d="M617 640l-27 -106h-42c-32 0 -55 -18 -64 -53l-31 -125c-14 -57 -68 -81 -123 -87v-2c51 -6 93 -30 79 -87l-31 -125c-9 -35 5 -53 37 -53h42l-26 -106h-198c-69 0 -109 59 -96 109l40 159c10 39 -33 57 -77 57l24 94c44 0 95 18 105 57l39 159c12 50 82 109 151 109h198
z" />
    <glyph glyph-name="bar" unicode="|" horiz-adv-x="186" 
d="M301 640l-204 -818h-96l204 818h96z" />
    <glyph glyph-name="braceright" unicode="}" horiz-adv-x="502" 
d="M536 315l-24 -94c-44 0 -95 -18 -105 -57l-40 -159c-13 -50 -81 -109 -150 -109h-198l26 106h42c32 0 56 18 65 53l31 125c14 57 68 81 123 87v2c-51 6 -93 30 -79 87l31 125c9 35 -6 53 -38 53h-42l27 106h198c69 0 107 -59 95 -109l-39 -159c-10 -39 33 -57 77 -57z
" />
    <glyph glyph-name="asciitilde" unicode="~" horiz-adv-x="461" 
d="M469 213l-16 -16c-41 -41 -74 -53 -116 -53c-26 0 -44 7 -59 16l-38 23c-9 5 -18 9 -32 9c-21 0 -38 -6 -59 -27l-16 -16l-41 38l16 16c41 41 74 53 116 53c27 0 43 -7 59 -16l38 -22c7 -5 18 -10 32 -10c22 0 37 5 59 27l16 16z" />
    <glyph glyph-name="exclamdown" unicode="&#xa1;" horiz-adv-x="326" 
d="M396 462l-42 -168h-236l42 168h236zM322 256l-21 -177l-64 -257h-236l64 257l67 177h190z" />
    <glyph glyph-name="cent" unicode="&#xa2;" horiz-adv-x="531" 
d="M611 521l-19 -76h-184c-23 0 -36 -9 -41 -29l-46 -185c-6 -25 3 -32 26 -32h184l-19 -76h-168l-26 -102h-86l26 102h-67c-78 0 -106 36 -88 108l46 185c16 66 49 105 122 105h86l24 97h86l-24 -97h168z" />
    <glyph glyph-name="sterling" unicode="&#xa3;" horiz-adv-x="776" 
d="M853 514l-14 -55h-236l12 48c5 20 -9 27 -36 27h-88c-39 0 -55 -9 -61 -32c-5 -19 0 -36 6 -48l21 -39c11 -21 19 -36 27 -55h256l-21 -82h-235c-18 -74 -57 -127 -131 -170l-1 -2h115c32 0 49 12 56 38l10 39h244l-15 -59c-19 -76 -87 -124 -182 -124h-535l28 111
c79 13 146 51 164 121c4 18 4 34 2 46h-144l21 82h79c-27 33 -28 66 -14 123c26 104 68 157 196 157h358c83 0 137 -50 118 -126z" />
    <glyph glyph-name="fraction" unicode="&#x2044;" horiz-adv-x="591" 
d="M706 640l-520 -640h-141l520 640h141z" />
    <glyph glyph-name="yen" unicode="&#xa5;" horiz-adv-x="825" 
d="M940 640l-194 -220h66l-21 -82h-117l-68 -78h166l-21 -82h-180l-44 -178h-244l44 178h-180l21 82h174l-32 78h-123l21 82h70l-88 220h289l103 -266l232 266h126z" />
    <glyph glyph-name="florin" unicode="&#x192;" horiz-adv-x="810" 
d="M925 640l-55 -106h-89c-32 0 -59 -22 -75 -53l-41 -81h116l-45 -86h-116l-185 -359c-53 -103 -93 -133 -199 -133h-235l54 106h87c37 0 65 39 82 72l160 314h-109l45 86h108l70 134c36 68 71 106 157 106h270z" />
    <glyph glyph-name="section" unicode="&#xa7;" horiz-adv-x="630" 
d="M735 640l-23 -92h-333c-18 0 -39 -5 -45 -29l-6 -26c-4 -18 2 -29 30 -29h216c66 0 119 -29 99 -110l-27 -110c-16 -65 -41 -90 -94 -106v-2c53 -17 52 -57 41 -102l-22 -90c-18 -72 -65 -122 -153 -122h-407l23 92h333c28 0 38 8 43 26l12 46c5 18 1 28 -31 28h-211
c-96 0 -121 47 -100 128l28 110c10 39 42 89 92 94l1 2c-48 10 -58 45 -48 85l25 100c18 72 77 107 155 107h402zM489 257c6 24 -1 35 -21 35h-160c-20 0 -33 -11 -39 -35l-9 -36c-6 -24 1 -35 21 -35h160c20 0 33 11 39 35z" />
    <glyph glyph-name="currency" unicode="&#xa4;" horiz-adv-x="476" 
d="M548 470l-55 -43c14 -29 20 -62 9 -107c-11 -44 -31 -76 -60 -106l32 -40l-55 -44l-34 40c-34 -20 -69 -33 -112 -33c-44 0 -73 13 -97 35l-55 -42l-33 44l54 43c-13 29 -17 61 -6 103c10 42 31 76 59 105l-33 45l56 46l33 -46c35 20 71 34 114 34c42 0 71 -12 94 -33
l57 45zM424 320c14 58 -21 105 -79 105c-57 0 -117 -47 -131 -105c-15 -58 22 -104 79 -104c58 0 116 46 131 104z" />
    <glyph glyph-name="quotesingle" unicode="'" horiz-adv-x="202" 
d="M317 640l-68 -272h-112l68 272h112z" />
    <glyph glyph-name="quotedblleft" unicode="&#x201c;" horiz-adv-x="624" 
d="M721 648l-103 -134h89l-42 -168h-236l38 153l169 149h85zM423 648l-103 -134h89l-42 -168h-236l38 153l169 149h85z" />
    <glyph glyph-name="guillemotleft" unicode="&#xab;" horiz-adv-x="577" 
d="M636 416l-144 -186l51 -186h-166l-51 186l144 186h166zM412 416l-144 -186l51 -186h-166l-51 186l144 186h166z" />
    <glyph glyph-name="guilsinglleft" unicode="&#x2039;" horiz-adv-x="353" 
d="M412 416l-144 -186l51 -186h-166l-51 186l144 186h166z" />
    <glyph glyph-name="guilsinglright" unicode="&#x203a;" horiz-adv-x="353" 
d="M365 230l-143 -186h-166l143 186l-50 186h166z" />
    <glyph glyph-name="fi" unicode="&#xfb01;" horiz-adv-x="899" 
d="M1019 640l-31 -124h-236l31 124h236zM976 470l-117 -470h-236l117 470h236zM727 640l-23 -92h-174c-27 0 -40 -9 -47 -35l-11 -43h188l-23 -92h-188l-94 -378h-236l94 378h-99l23 92h99l11 43c21 83 85 127 160 127h320z" />
    <glyph glyph-name="fl" unicode="&#xfb02;" horiz-adv-x="899" 
d="M1019 640l-160 -640h-236l133 534c11 43 27 106 27 106h236zM727 640l-23 -92h-174c-27 0 -40 -9 -47 -35l-11 -43h188l-23 -92h-188l-94 -378h-236l94 378h-99l23 92h99l11 43c21 83 85 127 160 127h320z" />
    <glyph glyph-name="endash" unicode="&#x2013;" horiz-adv-x="590" 
d="M621 303l-34 -135h-500l34 135h500z" />
    <glyph glyph-name="dagger" unicode="&#x2020;" horiz-adv-x="429" 
d="M494 440c-7 -26 -31 -40 -50 -40c-5 0 -13 2 -16 4c-36 16 -62 26 -95 28c-8 -32 -17 -64 -18 -96c0 -22 0 -49 11 -69c-23 -39 -39 -78 -54 -117c-19 -51 -34 -99 -47 -150l-20 -80h-21l20 80c13 51 22 99 28 150c4 39 8 78 6 117c20 20 32 47 45 69c14 32 21 64 29 96
c-35 -2 -65 -12 -108 -28c-6 -2 -14 -4 -19 -4c-19 0 -37 14 -30 40c6 26 31 40 50 40c6 0 10 -2 17 -4c35 -16 60 -27 94 -28c14 46 -6 101 7 154c7 28 32 38 52 38s38 -10 31 -38c-13 -53 -61 -108 -69 -154c34 1 65 12 109 28c6 2 12 4 18 4c19 0 36 -14 30 -40z" />
    <glyph glyph-name="daggerdbl" unicode="&#x2021;" horiz-adv-x="429" 
d="M494 440c-7 -26 -31 -40 -50 -40c-5 0 -13 2 -16 4c-36 16 -62 26 -95 28c-8 -32 -17 -64 -18 -96c0 -22 0 -49 11 -69c-21 -20 -35 -47 -46 -69c-16 -32 -22 -64 -30 -96c35 2 65 12 109 28c5 2 13 4 18 4c19 0 37 -13 30 -40c-6 -26 -31 -40 -50 -40c-6 0 -10 2 -16 4
c-36 16 -61 28 -95 28c-14 -45 7 -100 -7 -153c-7 -28 -30 -39 -50 -39s-40 11 -33 39c14 53 61 108 69 153c-34 0 -65 -12 -108 -28c-7 -2 -13 -4 -19 -4c-19 0 -36 14 -30 40c7 27 31 40 50 40c5 0 13 -2 17 -4c35 -16 61 -26 94 -28c8 32 17 64 19 96c-1 22 0 49 -10 69
c20 20 32 47 45 69c14 32 21 64 29 96c-35 -2 -65 -12 -108 -28c-6 -2 -14 -4 -19 -4c-19 0 -37 14 -30 40c6 26 31 40 50 40c6 0 10 -2 17 -4c35 -16 60 -27 94 -28c14 46 -6 101 7 154c7 28 32 38 52 38s38 -10 31 -38c-13 -53 -61 -108 -69 -154c34 1 65 12 109 28
c6 2 12 4 18 4c19 0 36 -14 30 -40z" />
    <glyph glyph-name="periodcentered" unicode="&#xb7;" horiz-adv-x="210" 
d="M245 320c-8 -33 -42 -60 -75 -60s-53 27 -45 60s42 60 75 60s53 -27 45 -60z" />
    <glyph glyph-name="paragraph" unicode="&#xb6;" horiz-adv-x="622" 
d="M737 640l-204 -818h-108l183 736h-110l-183 -736h-108l114 460h-58c-98 0 -137 43 -116 127l26 104c21 84 82 127 180 127h384z" />
    <glyph glyph-name="bullet" unicode="&#x2022;" horiz-adv-x="314" 
d="M349 320c-16 -62 -78 -112 -140 -112s-100 50 -84 112c15 62 78 112 140 112s99 -50 84 -112z" />
    <glyph glyph-name="quotesinglbase" unicode="&#x201a;" horiz-adv-x="326" 
d="M323 168l-38 -153l-168 -149h-85l102 134h-89l42 168h236z" />
    <glyph glyph-name="quotedblbase" unicode="&#x201e;" horiz-adv-x="624" 
d="M621 168l-38 -153l-168 -149h-85l102 134h-89l42 168h236zM323 168l-38 -153l-168 -149h-85l102 134h-89l42 168h236z" />
    <glyph glyph-name="quotedblright" unicode="&#x201d;" horiz-adv-x="624" 
d="M739 640l-39 -153l-168 -149h-85l103 134h-89l42 168h236zM441 640l-39 -153l-168 -149h-85l103 134h-89l42 168h236z" />
    <glyph glyph-name="guillemotright" unicode="&#xbb;" horiz-adv-x="577" 
d="M589 230l-143 -186h-166l143 186l-50 186h166zM365 230l-143 -186h-166l143 186l-50 186h166z" />
    <glyph glyph-name="ellipsis" unicode="&#x2026;" horiz-adv-x="1068" 
d="M1065 168l-42 -168h-236l42 168h236zM694 168l-42 -168h-236l42 168h236zM323 168l-42 -168h-236l42 168h236z" />
    <glyph glyph-name="perthousand" unicode="&#x2030;" horiz-adv-x="1210" 
d="M1225 241l-38 -154c-15 -60 -40 -87 -98 -87h-146c-58 0 -69 27 -54 87l38 154c15 60 40 87 98 87h146c58 0 69 -27 54 -87zM875 241l-38 -154c-15 -60 -40 -87 -98 -87h-146c-58 0 -69 27 -54 87l38 154c15 60 40 87 98 87h146c58 0 69 -27 54 -87zM842 640l-522 -640
h-140l522 640h140zM481 553l-39 -154c-15 -60 -39 -87 -97 -87h-146c-58 0 -70 27 -55 87l39 154c15 60 40 87 98 87h146c58 0 69 -27 54 -87zM1103 241c3 13 1 19 -9 19h-26c-10 0 -16 -6 -19 -19l-38 -154c-3 -13 -1 -19 9 -19h26c10 0 16 6 19 19zM753 241
c3 13 1 19 -9 19h-26c-10 0 -16 -6 -19 -19l-38 -154c-3 -13 -1 -19 9 -19h26c10 0 16 6 19 19zM359 553c3 13 1 19 -9 19h-26c-10 0 -16 -6 -19 -19l-39 -154c-3 -13 0 -19 10 -19h26c10 0 15 6 18 19z" />
    <glyph glyph-name="questiondown" unicode="&#xbf;" horiz-adv-x="731" 
d="M660 462l-42 -168h-236l42 168h236zM665 -86l-23 -92h-471c-101 0 -160 43 -137 134l21 85c17 70 84 125 152 125h92c31 0 45 7 53 38l13 52h244l-20 -79c-21 -83 -61 -121 -150 -121h-88c-36 0 -53 -19 -59 -42l-13 -54c-7 -29 6 -46 47 -46h339z" />
    <glyph glyph-name="grave" unicode="`" horiz-adv-x="398" 
d="M485 530h-137l-134 148h208z" />
    <glyph glyph-name="acute" unicode="&#xb4;" horiz-adv-x="398" 
d="M522 678l-208 -148h-137l137 148h208z" />
    <glyph glyph-name="circumflex" unicode="&#x2c6;" horiz-adv-x="496" 
d="M583 530h-147l-37 75l-75 -75h-147l157 148h166z" />
    <glyph glyph-name="tilde" unicode="&#x2dc;" horiz-adv-x="480" 
d="M602 669c-28 -78 -87 -141 -161 -141c-67 0 -90 39 -133 39c-24 0 -43 -19 -52 -37h-79c28 78 87 141 161 141c67 0 90 -39 133 -39c24 0 43 19 52 37h79z" />
    <glyph glyph-name="macron" unicode="&#xaf;" horiz-adv-x="466" 
d="M583 649l-23 -90h-376l23 90h376z" />
    <glyph glyph-name="breve" unicode="&#x2d8;" horiz-adv-x="454" 
d="M579 683c-30 -103 -104 -153 -220 -153s-164 50 -144 153h79c-1 -43 20 -63 88 -63s99 20 118 63h79z" />
    <glyph glyph-name="dotaccent" unicode="&#x2d9;" horiz-adv-x="259" 
d="M380 666l-32 -130h-169l32 130h169z" />
    <glyph glyph-name="dieresis" unicode="&#xa8;" horiz-adv-x="486" 
d="M607 666l-32 -130h-169l32 130h169zM380 666l-32 -130h-169l32 130h169z" />
    <glyph glyph-name="ring" unicode="&#x2da;" horiz-adv-x="314" 
d="M429 640c-16 -62 -78 -112 -140 -112s-100 50 -84 112c15 62 77 112 139 112s100 -50 85 -112zM366 640c6 27 -10 49 -37 49s-55 -22 -61 -49c-7 -27 9 -49 36 -49s55 22 62 49z" />
    <glyph glyph-name="cedilla" unicode="&#xb8;" horiz-adv-x="348" 
d="M269 -137c-14 -54 -80 -96 -157 -96c-43 0 -82 15 -118 29l32 46c27 -9 50 -20 81 -20c25 0 54 10 61 37c6 23 -13 34 -40 34c-14 0 -22 -4 -36 -9l-20 24l79 92h58l-55 -64c12 3 21 5 33 5c61 0 93 -33 82 -78z" />
    <glyph glyph-name="hungarumlaut" unicode="&#x2dd;" horiz-adv-x="558" 
d="M681 675l-161 -145h-122l113 145h170zM460 675l-161 -145h-122l113 145h170z" />
    <glyph glyph-name="ogonek" unicode="&#x2db;" horiz-adv-x="345" 
d="M278 21l-3 -12c-74 -27 -144 -65 -159 -124c-6 -26 5 -49 34 -49c25 0 66 23 99 41l11 -36c-50 -28 -111 -60 -166 -60c-53 0 -97 28 -81 90c24 97 152 133 265 150z" />
    <glyph glyph-name="caron" unicode="&#x2c7;" horiz-adv-x="496" 
d="M620 678l-157 -148h-166l-83 148h147l37 -75l75 75h147z" />
    <glyph glyph-name="emdash" unicode="&#x2014;" horiz-adv-x="1090" 
d="M1121 303l-34 -135h-1000l34 135h1000z" />
    <glyph glyph-name="AE" unicode="&#xc6;" horiz-adv-x="1088" 
d="M1187 640l-27 -106h-288l-37 -150h262l-27 -106h-262l-43 -172h288l-26 -106h-532l43 172h-234l-135 -172h-132l541 640h609zM626 526c2 8 3 18 -5 18c-6 0 -17 -9 -24 -18l-208 -248h175z" />
    <glyph glyph-name="ordfeminine" unicode="&#xaa;" horiz-adv-x="498" 
d="M587 539l-45 -181h-147l8 31h-2c-10 -20 -26 -31 -58 -31h-129c-60 0 -73 23 -59 83l6 26c13 58 43 83 99 83h176l4 17c3 12 -2 17 -22 17h-213l14 56h291c71 0 95 -28 77 -101zM530 308l-14 -56h-398l14 56h398zM422 494h-70c-25 0 -32 -8 -36 -24l-8 -34
c-4 -16 0 -22 22 -22h49c18 0 25 8 31 33z" />
    <glyph glyph-name="Lslash" unicode="&#x141;" horiz-adv-x="664" 
d="M670 106l-26 -106h-554l56 223l-78 -31l22 89l78 31l82 328h244l-55 -218l166 67l-22 -89l-166 -67l-57 -227h310z" />
    <glyph glyph-name="Oslash" unicode="&#xd8;" 
d="M969 738l-137 -129c29 -30 34 -80 18 -146l-71 -286c-28 -111 -93 -177 -202 -177h-374h-13l-115 -108h-110l144 137c-32 29 -37 80 -20 148l71 286c28 111 94 177 203 177h374c6 0 12 0 17 -1l105 99h110zM616 508c0 17 -12 26 -40 26h-106c-35 0 -51 -13 -58 -40
l-58 -234zM584 374l-260 -247c1 -14 13 -21 39 -21h106c35 0 51 13 58 40z" />
    <glyph glyph-name="OE" unicode="&#x152;" horiz-adv-x="1030" 
d="M1149 640l-27 -106h-276l-37 -150h250l-27 -106h-250l-43 -172h276l-26 -106h-786c-109 0 -142 66 -114 177l71 286c28 111 94 177 203 177h786zM602 534h-132c-29 15 -51 -13 -58 -40l-87 -348c-7 -27 3 -40 38 -40h132z" />
    <glyph glyph-name="ordmasculine" unicode="&#xba;" horiz-adv-x="507" 
d="M601 558l-29 -118c-15 -61 -48 -82 -109 -82h-241c-61 0 -82 21 -67 82l29 118c15 61 48 82 109 82h241c61 0 82 -21 67 -82zM529 308l-14 -56h-397l14 56h397zM448 563c4 14 0 21 -13 21h-71c-13 0 -21 -7 -25 -21l-32 -128c-3 -14 1 -21 14 -21h71c13 0 21 7 24 21z
" />
    <glyph glyph-name="ae" unicode="&#xe6;" horiz-adv-x="996" 
d="M1050 336l-38 -152h-349l-11 -44c-8 -31 5 -48 37 -48h290l-23 -92h-454c-40 0 -67 15 -78 50c-21 -30 -35 -50 -83 -50h-178c-94 0 -125 38 -99 138l11 43c25 97 70 137 164 137h227l8 30c5 18 -5 30 -29 30h-299l23 92h767c86 0 136 -47 114 -134zM827 341
c7 27 0 37 -27 37h-53c-27 0 -38 -10 -45 -37l-16 -65h125zM443 226h-89c-37 0 -46 -12 -53 -39l-15 -57c-7 -27 0 -38 35 -38h46c38 0 45 11 56 54z" />
    <glyph glyph-name="dotlessi" unicode="&#x131;" horiz-adv-x="336" 
d="M403 470l-117 -470h-236l117 470h236z" />
    <glyph glyph-name="lslash" unicode="&#x142;" horiz-adv-x="396" 
d="M487 447l-22 -90l-66 -24l-83 -333h-236l59 236l-66 -24l22 90l66 24l79 314h236l-55 -218z" />
    <glyph glyph-name="oslash" unicode="&#xf8;" horiz-adv-x="700" 
d="M824 569l-114 -106c53 -16 60 -62 43 -129l-49 -198c-21 -85 -63 -136 -164 -136h-329l-113 -105h-106l118 111c-56 15 -63 61 -46 130l49 198c21 85 63 136 164 136h334l107 99h106zM510 376c-4 1 -9 2 -15 2h-102c-23 0 -35 -11 -41 -35l-37 -148zM501 269l-190 -176
c3 -1 7 -1 11 -1h102c23 0 36 11 42 35z" />
    <glyph glyph-name="oe" unicode="&#x153;" horiz-adv-x="1000" 
d="M1054 336l-38 -152h-349l-11 -44c-8 -31 5 -48 37 -48h290l-23 -92h-800c-101 0 -117 51 -96 136l49 198c21 85 63 136 164 136h679c98 0 120 -47 98 -134zM831 341c7 27 0 37 -27 37h-53c-27 0 -38 -10 -45 -37l-16 -65h125zM477 343c6 24 -2 35 -25 35h-65
c-23 0 -35 -11 -41 -35l-54 -216c-6 -24 1 -35 24 -35h65c23 0 36 11 42 35z" />
    <glyph glyph-name="germandbls" unicode="&#xdf;" horiz-adv-x="718" 
d="M767 556l-15 -57c-11 -41 -26 -56 -71 -67l-37 -9v-2c114 -3 130 -37 105 -137l-38 -150c-21 -84 -64 -134 -182 -134h-201l23 92h76c22 0 41 14 48 42l47 186c8 32 1 46 -32 46h-78l23 92h65c21 0 33 11 41 45c9 36 7 45 -13 45h-71c-24 0 -36 -7 -42 -31l-129 -517
h-236l128 513c21 83 98 127 192 127h304c78 0 109 -24 93 -84z" />
    <glyph glyph-name="Eth" unicode="&#xd0;" horiz-adv-x="790" 
d="M860 463l-71 -286c-28 -111 -93 -177 -202 -177h-503l69 278h-64l27 106h64l64 256h503c109 0 141 -66 113 -177zM624 494c7 27 -3 40 -38 40h-125l-37 -150h92l-27 -106h-92l-43 -172h125c35 0 51 13 58 40z" />
    <glyph glyph-name="eth" unicode="&#xf0;" horiz-adv-x="730" 
d="M793 435l-80 -324c-19 -76 -63 -111 -156 -111h-385c-84 0 -120 29 -99 111l39 156c19 77 61 111 157 111h235l38 -5l14 58c6 25 -5 44 -28 50l-124 -60l-69 57l91 44l-110 44l147 74l110 -48l99 48l88 -46l-91 -44l101 -45c19 -9 31 -38 23 -70zM518 275
c4 16 1 29 -26 29h-102c-27 0 -36 -13 -40 -29l-43 -172c-4 -16 -2 -29 25 -29h102c27 0 37 13 41 29z" />
    <glyph glyph-name="Scaron" unicode="&#x160;" horiz-adv-x="706" 
d="M821 640l-27 -106h-337c-33 0 -44 -6 -49 -26l-11 -41c-5 -19 4 -25 37 -25h182c93 0 147 -36 125 -123l-42 -168c-25 -99 -83 -151 -182 -151h-472l26 106h342c31 0 40 7 45 28l11 44c6 22 -3 28 -34 28h-209c-92 0 -121 35 -96 134l38 153c20 79 76 147 167 147h486z
M773 824l-157 -148h-166l-83 148h147l37 -75l75 75h147z" />
    <glyph glyph-name="scaron" unicode="&#x161;" horiz-adv-x="644" 
d="M731 470l-21 -86h-333c-24 0 -33 -7 -36 -19l-4 -17c-3 -14 6 -18 26 -18h208c81 0 117 -34 96 -118l-22 -88c-18 -71 -81 -124 -166 -124h-449l21 86h335c22 0 31 9 35 23l4 15c4 14 -3 22 -24 22h-214c-87 0 -108 46 -91 117l22 90c18 72 94 117 173 117h440zM694 678
l-157 -148h-166l-83 148h147l37 -75l75 75h147z" />
    <glyph glyph-name="Yacute" unicode="&#xdd;" horiz-adv-x="825" 
d="M939 640l-353 -403l-59 -237h-244l62 250l-155 390h289l103 -266l233 266h124zM787 824l-208 -148h-137l137 148h208z" />
    <glyph glyph-name="yacute" unicode="&#xfd;" horiz-adv-x="706" 
d="M783 470l-127 -511c-23 -92 -78 -137 -167 -137h-483l23 92h336c30 0 45 8 52 35l24 97h-2c-15 -30 -38 -46 -78 -46h-166c-108 0 -139 67 -114 166l76 304h236l-86 -344c-5 -21 1 -34 26 -34h88c19 0 34 11 40 34l86 344h236zM733 678l-208 -148h-137l137 148h208z" />
    <glyph glyph-name="Thorn" unicode="&#xde;" horiz-adv-x="760" 
d="M811 387l-27 -112c-19 -78 -68 -147 -188 -147h-265l-32 -128h-244l160 640h244l-25 -100h258c105 0 146 -41 119 -153zM566 381c10 42 3 53 -27 53h-132l-50 -200h132c32 0 44 14 53 50z" />
    <glyph glyph-name="thorn" unicode="&#xfe;" horiz-adv-x="712" 
d="M764 328l-47 -188c-21 -83 -81 -140 -179 -140h-190c-34 0 -47 17 -49 46h-2l-55 -224h-236l204 818h236l-49 -195h2c14 17 32 25 52 25h204c102 0 129 -61 109 -142zM532 344c6 23 -1 34 -26 34h-94c-22 0 -34 -11 -40 -34l-55 -218c-6 -23 2 -34 24 -34h94
c25 0 36 11 42 34z" />
    <glyph glyph-name="Zcaron" unicode="&#x17d;" horiz-adv-x="715" 
d="M855 640l-464 -534h289l-26 -106h-634l462 534h-285l27 106h631zM778 824l-157 -148h-166l-83 148h147l37 -75l75 75h147z" />
    <glyph glyph-name="zcaron" unicode="&#x17e;" horiz-adv-x="710" 
d="M776 470l-365 -378h287l-23 -92h-640l374 378h-273l23 92h617zM743 678l-157 -148h-166l-83 148h147l37 -75l75 75h147z" />
    <glyph glyph-name="onehalf" unicode="&#xbd;" horiz-adv-x="1131" 
d="M1161 300l-21 -83c-13 -50 -44 -72 -105 -75l-164 -7c-12 -1 -22 -7 -26 -23l-12 -48h269l-16 -64h-426l43 174c13 53 36 75 92 78l184 10c14 1 21 6 24 17l6 24c3 12 -7 17 -22 17h-237l16 64h310c70 0 101 -22 85 -84zM896 640l-520 -640h-141l520 640h141zM423 640
l-96 -384h-158l66 267h-60l17 68l189 49h42z" />
    <glyph glyph-name="onequarter" unicode="&#xbc;" horiz-adv-x="1110" 
d="M1112 187l-26 -101h-69l-21 -86h-158l21 86h-277l24 95l301 203h185l-49 -197h69zM896 640l-520 -640h-141l520 640h141zM423 640l-96 -384h-158l66 267h-60l17 68l189 49h42zM916 314l-193 -125v-2h162z" />
    <glyph glyph-name="onesuperior" unicode="&#xb9;" horiz-adv-x="308" 
d="M423 640l-96 -384h-158l66 267h-60l17 68l189 49h42z" />
    <glyph glyph-name="threequarters" unicode="&#xbe;" horiz-adv-x="1230" 
d="M1232 187l-26 -101h-69l-21 -86h-158l21 86h-277l24 95l301 203h185l-49 -197h69zM1016 640l-520 -640h-141l520 640h141zM591 569l-17 -69c-10 -39 -65 -47 -110 -47l-1 -2c70 -2 96 -11 85 -55l-17 -69c-11 -46 -41 -71 -101 -71h-331l16 64h234c18 0 24 7 27 21l14 57
c4 15 1 21 -17 21h-154l16 64h154c18 0 24 6 28 21l12 51c3 14 2 21 -16 21h-234l16 64h306c78 0 101 -25 90 -71zM1036 314l-193 -125v-2h162z" />
    <glyph glyph-name="threesuperior" unicode="&#xb3;" horiz-adv-x="494" 
d="M591 569l-17 -69c-10 -39 -65 -47 -110 -47l-1 -2c70 -2 96 -11 85 -55l-17 -69c-11 -46 -41 -71 -101 -71h-331l16 64h234c18 0 24 7 27 21l14 57c4 15 1 21 -17 21h-154l16 64h154c18 0 24 6 28 21l12 51c3 14 2 21 -16 21h-234l16 64h306c78 0 101 -25 90 -71z" />
    <glyph glyph-name="twosuperior" unicode="&#xb2;" horiz-adv-x="516" 
d="M610 556l-21 -83c-13 -50 -44 -72 -105 -75l-165 -7c-12 -1 -21 -7 -25 -23l-12 -48h269l-16 -64h-426l43 174c13 53 36 75 92 78l184 10c13 1 20 6 23 17l6 24c3 12 -6 17 -21 17h-237l16 64h310c70 0 101 -22 85 -84z" />
    <glyph glyph-name="brokenbar" unicode="&#xa6;" horiz-adv-x="186" 
d="M301 640l-85 -338h-96l85 338h96zM181 160l-84 -338h-96l84 338h96z" />
    <glyph glyph-name="minus" unicode="&#x2212;" horiz-adv-x="410" 
d="M423 232l-16 -64h-320l16 64h320z" />
    <glyph glyph-name="multiply" unicode="&#xd7;" horiz-adv-x="410" 
d="M444 316l-146 -116l87 -115l-54 -45l-87 116l-144 -116l-33 44l144 116l-87 117l56 43l86 -116l144 116z" />
    <glyph glyph-name="Adieresis" unicode="&#xc4;" horiz-adv-x="892" 
d="M853 0h-259l-30 172h-281l-127 -172h-118l466 640h244zM548 278l-37 216l-152 -216h189zM854 812l-32 -130h-169l32 130h169zM627 812l-32 -130h-169l32 130h169z" />
    <glyph glyph-name="Aring" unicode="&#xc5;" horiz-adv-x="892" 
d="M853 0h-259l-30 172h-281l-127 -172h-118l466 640h244zM548 278l-37 216l-152 -216h189zM750 786c-16 -62 -78 -112 -140 -112s-100 50 -84 112c15 62 77 112 139 112s100 -50 85 -112zM687 786c6 27 -10 49 -37 49s-55 -22 -61 -49c-7 -27 9 -49 36 -49s55 22 62 49z
" />
    <glyph glyph-name="Ccedilla" unicode="&#xc7;" horiz-adv-x="650" 
d="M770 640l-27 -106h-273c-35 0 -51 -13 -58 -40l-87 -348c-7 -27 3 -40 38 -40h273l-26 -106h-226l-55 -64c12 3 21 5 33 5c61 0 93 -33 82 -78c-14 -54 -80 -96 -157 -96c-43 0 -82 15 -118 29l32 46c27 -9 50 -20 81 -20c25 0 54 10 61 37c6 23 -13 34 -40 34
c-14 0 -22 -4 -36 -9l-20 24l79 92h-123c-109 0 -142 66 -114 177l71 286c28 111 94 177 203 177h407z" />
    <glyph glyph-name="Eacute" unicode="&#xc9;" horiz-adv-x="650" 
d="M769 640l-27 -106h-310l-37 -150h284l-27 -106h-284l-43 -172h310l-26 -106h-554l160 640h554zM703 824l-208 -148h-137l137 148h208z" />
    <glyph glyph-name="Ntilde" unicode="&#xd1;" horiz-adv-x="798" 
d="M903 640l-160 -640h-316l-132 530h-2l-132 -530h-106l160 640h319l129 -522h3l131 522h106zM797 815c-28 -78 -87 -141 -161 -141c-67 0 -90 39 -133 39c-24 0 -43 -19 -52 -37h-79c28 78 87 141 161 141c67 0 90 -39 133 -39c24 0 43 19 52 37h79z" />
    <glyph glyph-name="Odieresis" unicode="&#xd6;" 
d="M850 463l-71 -286c-28 -111 -93 -177 -202 -177h-374c-109 0 -142 66 -114 177l71 286c28 111 94 177 203 177h374c109 0 141 -66 113 -177zM614 494c7 27 -3 40 -38 40h-106c-35 0 -51 -13 -58 -40l-87 -348c-7 -27 3 -40 38 -40h106c35 0 51 13 58 40zM774 812
l-32 -130h-169l32 130h169zM547 812l-32 -130h-169l32 130h169z" />
    <glyph glyph-name="Udieresis" unicode="&#xdc;" horiz-adv-x="790" 
d="M895 640l-113 -450c-34 -136 -92 -190 -214 -190h-346c-98 0 -154 54 -120 190l113 450h244l-119 -476c-10 -41 5 -58 42 -58h216c43 0 59 9 70 52l121 482h106zM793 812l-32 -130h-169l32 130h169zM566 812l-32 -130h-169l32 130h169z" />
    <glyph glyph-name="aacute" unicode="&#xe1;" horiz-adv-x="697" 
d="M732 302l-75 -302h-225l13 52h-2c-19 -41 -48 -52 -102 -52h-178c-94 0 -125 38 -99 138l11 43c25 97 70 137 164 137h261l8 30c5 18 -5 30 -29 30h-333l23 92h450c97 0 145 -39 113 -168zM477 226h-104c-42 0 -53 -12 -60 -39l-15 -57c-7 -27 1 -38 39 -38h64
c38 0 46 14 57 57zM725 678l-208 -148h-137l137 148h208z" />
    <glyph glyph-name="agrave" unicode="&#xe0;" horiz-adv-x="697" 
d="M732 302l-75 -302h-225l13 52h-2c-19 -41 -48 -52 -102 -52h-178c-94 0 -125 38 -99 138l11 43c25 97 70 137 164 137h261l8 30c5 18 -5 30 -29 30h-333l23 92h450c97 0 145 -39 113 -168zM477 226h-104c-42 0 -53 -12 -60 -39l-15 -57c-7 -27 1 -38 39 -38h64
c38 0 46 14 57 57zM586 530h-137l-134 148h208z" />
    <glyph glyph-name="acircumflex" unicode="&#xe2;" horiz-adv-x="697" 
d="M732 302l-75 -302h-225l13 52h-2c-19 -41 -48 -52 -102 -52h-178c-94 0 -125 38 -99 138l11 43c25 97 70 137 164 137h261l8 30c5 18 -5 30 -29 30h-333l23 92h450c97 0 145 -39 113 -168zM477 226h-104c-42 0 -53 -12 -60 -39l-15 -57c-7 -27 1 -38 39 -38h64
c38 0 46 14 57 57zM686 530h-147l-37 75l-75 -75h-147l157 148h166z" />
    <glyph glyph-name="adieresis" unicode="&#xe4;" horiz-adv-x="697" 
d="M732 302l-75 -302h-225l13 52h-2c-19 -41 -48 -52 -102 -52h-178c-94 0 -125 38 -99 138l11 43c25 97 70 137 164 137h261l8 30c5 18 -5 30 -29 30h-333l23 92h450c97 0 145 -39 113 -168zM477 226h-104c-42 0 -53 -12 -60 -39l-15 -57c-7 -27 1 -38 39 -38h64
c38 0 46 14 57 57zM714 666l-32 -130h-169l32 130h169zM487 666l-32 -130h-169l32 130h169z" />
    <glyph glyph-name="atilde" unicode="&#xe3;" horiz-adv-x="697" 
d="M732 302l-75 -302h-225l13 52h-2c-19 -41 -48 -52 -102 -52h-178c-94 0 -125 38 -99 138l11 43c25 97 70 137 164 137h261l8 30c5 18 -5 30 -29 30h-333l23 92h450c97 0 145 -39 113 -168zM477 226h-104c-42 0 -53 -12 -60 -39l-15 -57c-7 -27 1 -38 39 -38h64
c38 0 46 14 57 57zM712 669c-28 -78 -87 -141 -161 -141c-67 0 -90 39 -133 39c-24 0 -43 -19 -52 -37h-79c28 78 87 141 161 141c67 0 90 -39 133 -39c24 0 43 19 52 37h79z" />
    <glyph glyph-name="aring" unicode="&#xe5;" horiz-adv-x="697" 
d="M732 302l-75 -302h-225l13 52h-2c-19 -41 -48 -52 -102 -52h-178c-94 0 -125 38 -99 138l11 43c25 97 70 137 164 137h261l8 30c5 18 -5 30 -29 30h-333l23 92h450c97 0 145 -39 113 -168zM477 226h-104c-42 0 -53 -12 -60 -39l-15 -57c-7 -27 1 -38 39 -38h64
c38 0 46 14 57 57zM622 640c-16 -62 -78 -112 -140 -112s-100 50 -84 112c15 62 77 112 139 112s100 -50 85 -112zM559 640c6 27 -10 49 -37 49s-55 -22 -61 -49c-7 -27 9 -49 36 -49s55 22 62 49z" />
    <glyph glyph-name="ccedilla" unicode="&#xe7;" horiz-adv-x="590" 
d="M683 470l-23 -92h-251c-32 0 -53 -17 -61 -48l-47 -190c-8 -31 5 -48 37 -48h251l-23 -92h-221l-55 -64c12 3 21 5 33 5c61 0 93 -33 82 -78c-14 -54 -80 -96 -157 -96c-43 0 -82 15 -118 29l32 46c27 -9 50 -20 81 -20c25 0 54 10 61 37c6 23 -13 34 -40 34
c-14 0 -22 -4 -36 -9l-20 24l79 92h-113c-98 0 -130 57 -109 140l47 190c21 83 81 140 179 140h392z" />
    <glyph glyph-name="eacute" unicode="&#xe9;" horiz-adv-x="691" 
d="M745 336l-38 -152h-395l-11 -44c-8 -31 5 -48 37 -48h336l-23 -92h-490c-98 0 -120 43 -96 140l49 196c22 87 66 134 164 134h369c98 0 120 -47 98 -134zM516 341c7 27 0 37 -27 37h-93c-27 0 -38 -10 -45 -37l-16 -65h165zM725 678l-208 -148h-137l137 148h208z" />
    <glyph glyph-name="egrave" unicode="&#xe8;" horiz-adv-x="691" 
d="M745 336l-38 -152h-395l-11 -44c-8 -31 5 -48 37 -48h336l-23 -92h-490c-98 0 -120 43 -96 140l49 196c22 87 66 134 164 134h369c98 0 120 -47 98 -134zM516 341c7 27 0 37 -27 37h-93c-27 0 -38 -10 -45 -37l-16 -65h165zM586 530h-137l-134 148h208z" />
    <glyph glyph-name="ecircumflex" unicode="&#xea;" horiz-adv-x="691" 
d="M745 336l-38 -152h-395l-11 -44c-8 -31 5 -48 37 -48h336l-23 -92h-490c-98 0 -120 43 -96 140l49 196c22 87 66 134 164 134h369c98 0 120 -47 98 -134zM516 341c7 27 0 37 -27 37h-93c-27 0 -38 -10 -45 -37l-16 -65h165zM686 530h-147l-37 75l-75 -75h-147l157 148
h166z" />
    <glyph glyph-name="edieresis" unicode="&#xeb;" horiz-adv-x="691" 
d="M745 336l-38 -152h-395l-11 -44c-8 -31 5 -48 37 -48h336l-23 -92h-490c-98 0 -120 43 -96 140l49 196c22 87 66 134 164 134h369c98 0 120 -47 98 -134zM516 341c7 27 0 37 -27 37h-93c-27 0 -38 -10 -45 -37l-16 -65h165zM714 666l-32 -130h-169l32 130h169zM487 666
l-32 -130h-169l32 130h169z" />
    <glyph glyph-name="iacute" unicode="&#xed;" horiz-adv-x="336" 
d="M403 470l-117 -470h-236l117 470h236zM543 678l-208 -148h-137l137 148h208z" />
    <glyph glyph-name="igrave" unicode="&#xec;" horiz-adv-x="336" 
d="M403 470l-117 -470h-236l117 470h236zM404 530h-137l-134 148h208z" />
    <glyph glyph-name="icircumflex" unicode="&#xee;" horiz-adv-x="336" 
d="M403 470l-117 -470h-236l117 470h236zM504 530h-147l-37 75l-75 -75h-147l157 148h166z" />
    <glyph glyph-name="idieresis" unicode="&#xef;" horiz-adv-x="336" 
d="M403 470l-117 -470h-236l117 470h236zM532 666l-32 -130h-169l32 130h169zM305 666l-32 -130h-169l32 130h169z" />
    <glyph glyph-name="ntilde" unicode="&#xf1;" horiz-adv-x="716" 
d="M752 304l-76 -304h-236l86 344c5 21 -1 34 -26 34h-98c-19 0 -34 -11 -40 -34l-86 -344h-236l117 470h225l-12 -49h2c19 29 44 49 76 49h190c108 0 139 -67 114 -166zM720 669c-28 -78 -87 -141 -161 -141c-67 0 -90 39 -133 39c-24 0 -43 -19 -52 -37h-79
c28 78 87 141 161 141c67 0 90 -39 133 -39c24 0 43 19 52 37h79z" />
    <glyph glyph-name="oacute" unicode="&#xf3;" horiz-adv-x="700" 
d="M753 334l-49 -198c-21 -85 -63 -136 -164 -136h-380c-101 0 -117 51 -96 136l49 198c21 85 63 136 164 136h380c101 0 117 -51 96 -136zM520 343c6 24 -2 35 -25 35h-102c-23 0 -35 -11 -41 -35l-54 -216c-6 -24 1 -35 24 -35h102c23 0 36 11 42 35zM724 678l-208 -148
h-137l137 148h208z" />
    <glyph glyph-name="ograve" unicode="&#xf2;" horiz-adv-x="700" 
d="M753 334l-49 -198c-21 -85 -63 -136 -164 -136h-380c-101 0 -117 51 -96 136l49 198c21 85 63 136 164 136h380c101 0 117 -51 96 -136zM520 343c6 24 -2 35 -25 35h-102c-23 0 -35 -11 -41 -35l-54 -216c-6 -24 1 -35 24 -35h102c23 0 36 11 42 35zM586 530h-137
l-134 148h208z" />
    <glyph glyph-name="ocircumflex" unicode="&#xf4;" horiz-adv-x="700" 
d="M753 334l-49 -198c-21 -85 -63 -136 -164 -136h-380c-101 0 -117 51 -96 136l49 198c21 85 63 136 164 136h380c101 0 117 -51 96 -136zM520 343c6 24 -2 35 -25 35h-102c-23 0 -35 -11 -41 -35l-54 -216c-6 -24 1 -35 24 -35h102c23 0 36 11 42 35zM686 530h-147l-37 75
l-75 -75h-147l157 148h166z" />
    <glyph glyph-name="odieresis" unicode="&#xf6;" horiz-adv-x="700" 
d="M753 334l-49 -198c-21 -85 -63 -136 -164 -136h-380c-101 0 -117 51 -96 136l49 198c21 85 63 136 164 136h380c101 0 117 -51 96 -136zM520 343c6 24 -2 35 -25 35h-102c-23 0 -35 -11 -41 -35l-54 -216c-6 -24 1 -35 24 -35h102c23 0 36 11 42 35zM714 666l-32 -130
h-169l32 130h169zM487 666l-32 -130h-169l32 130h169z" />
    <glyph glyph-name="otilde" unicode="&#xf5;" horiz-adv-x="700" 
d="M753 334l-49 -198c-21 -85 -63 -136 -164 -136h-380c-101 0 -117 51 -96 136l49 198c21 85 63 136 164 136h380c101 0 117 -51 96 -136zM520 343c6 24 -2 35 -25 35h-102c-23 0 -35 -11 -41 -35l-54 -216c-6 -24 1 -35 24 -35h102c23 0 36 11 42 35zM712 669
c-28 -78 -87 -141 -161 -141c-67 0 -90 39 -133 39c-24 0 -43 -19 -52 -37h-79c28 78 87 141 161 141c67 0 90 -39 133 -39c24 0 43 19 52 37h79z" />
    <glyph glyph-name="uacute" unicode="&#xfa;" horiz-adv-x="716" 
d="M793 470l-117 -470h-225l12 49h-2c-19 -29 -44 -49 -76 -49h-190c-108 0 -139 67 -114 166l76 304h236l-86 -344c-5 -21 1 -34 26 -34h98c19 0 34 11 40 34l86 344h236zM733 678l-208 -148h-137l137 148h208z" />
    <glyph glyph-name="ugrave" unicode="&#xf9;" horiz-adv-x="716" 
d="M793 470l-117 -470h-225l12 49h-2c-19 -29 -44 -49 -76 -49h-190c-108 0 -139 67 -114 166l76 304h236l-86 -344c-5 -21 1 -34 26 -34h98c19 0 34 11 40 34l86 344h236zM594 530h-137l-134 148h208z" />
    <glyph glyph-name="ucircumflex" unicode="&#xfb;" horiz-adv-x="716" 
d="M793 470l-117 -470h-225l12 49h-2c-19 -29 -44 -49 -76 -49h-190c-108 0 -139 67 -114 166l76 304h236l-86 -344c-5 -21 1 -34 26 -34h98c19 0 34 11 40 34l86 344h236zM694 530h-147l-37 75l-75 -75h-147l157 148h166z" />
    <glyph glyph-name="udieresis" unicode="&#xfc;" horiz-adv-x="716" 
d="M793 470l-117 -470h-225l12 49h-2c-19 -29 -44 -49 -76 -49h-190c-108 0 -139 67 -114 166l76 304h236l-86 -344c-5 -21 1 -34 26 -34h98c19 0 34 11 40 34l86 344h236zM722 666l-32 -130h-169l32 130h169zM495 666l-32 -130h-169l32 130h169z" />
    <glyph glyph-name="degree" unicode="&#xb0;" horiz-adv-x="330" 
d="M415 520c-16 -66 -84 -120 -150 -120c-67 0 -106 54 -90 120c17 67 83 120 150 120c66 0 107 -53 90 -120zM369 520c11 42 -15 75 -56 75c-42 0 -82 -33 -93 -75c-10 -41 14 -74 56 -74c41 0 83 33 93 74z" />
    <glyph glyph-name="registered" unicode="&#xae;" horiz-adv-x="730" 
d="M765 321c-44 -177 -225 -321 -401 -321c-177 0 -284 144 -240 321c44 176 223 319 400 319c176 0 285 -143 241 -319zM709 321c36 146 -52 263 -199 263c-146 0 -293 -117 -329 -263c-37 -147 51 -265 197 -265c147 0 294 118 331 265zM606 397c-12 -48 -38 -75 -62 -89
c14 -18 19 -47 8 -91c-10 -42 -8 -52 1 -81h-64c-5 24 1 54 8 81c14 55 -9 69 -55 69h-81l-37 -150h-56l92 369h138c66 0 130 -18 108 -108zM550 397c11 45 -25 53 -62 53h-86l-27 -108h86c37 0 77 8 89 55z" />
    <glyph glyph-name="copyright" unicode="&#xa9;" horiz-adv-x="730" 
d="M765 321c-44 -177 -225 -321 -401 -321c-177 0 -284 144 -240 321c44 176 223 319 400 319c176 0 285 -143 241 -319zM709 321c36 146 -52 263 -199 263c-146 0 -293 -117 -329 -263c-37 -147 51 -265 197 -265c147 0 294 118 331 265zM619 378h-59c9 34 -11 80 -82 80
c-84 0 -136 -81 -150 -137s-3 -139 81 -139c71 0 114 47 122 80h59c-14 -59 -86 -135 -194 -135c-104 0 -152 87 -125 194c26 104 117 192 221 192c108 0 142 -77 127 -135z" />
    <glyph glyph-name="trademark" unicode="&#x2122;" horiz-adv-x="671" 
d="M786 640l-80 -320h-54l52 210l-130 -209h-56l-26 209l-52 -210h-53l80 320h69l30 -238l149 238h71zM443 640l-13 -51h-92l-67 -269h-54l67 269h-92l13 51h238z" />
    <glyph glyph-name="notequal" unicode="&#x2260;" horiz-adv-x="450" 
d="M482 308l-16 -64h-123l-68 -88h169l-16 -64h-202l-63 -83l-46 30l41 53h-90l16 64h122l67 88h-167l16 64h200l64 85l48 -30l-43 -55h91z" />
    <glyph glyph-name="infinity" unicode="&#x221e;" horiz-adv-x="692" 
d="M697 200c-19 -74 -96 -136 -166 -136c-55 0 -105 35 -143 86l-3 5l-8 -5c-61 -51 -130 -86 -184 -86c-70 0 -117 62 -98 136c18 73 96 132 166 132c55 0 106 -34 141 -82l5 -5l6 5c59 49 129 82 184 82c69 0 118 -59 100 -132zM633 200c9 38 -16 68 -52 68
c-41 0 -90 -28 -134 -62l-6 -6l3 -6c28 -36 63 -66 103 -66c36 0 76 34 86 72zM351 200l-5 6c-27 32 -60 62 -101 62c-36 0 -77 -30 -86 -68c-10 -38 13 -72 50 -72c40 0 88 31 134 66z" />
    <glyph glyph-name="plusminus" unicode="&#xb1;" horiz-adv-x="410" 
d="M439 296l-16 -64h-128l-32 -128h-64l32 128h-128l16 64h128l32 128h64l-32 -128h128zM381 64l-16 -64h-320l16 64h320z" />
    <glyph glyph-name="lessequal" unicode="&#x2264;" horiz-adv-x="410" 
d="M473 432l-17 -68l-257 -100l207 -100l-17 -68l-286 138l15 60zM381 64l-16 -64h-320l16 64h320z" />
    <glyph glyph-name="greaterequal" unicode="&#x2265;" horiz-adv-x="410" 
d="M438 294l-15 -60l-354 -138l17 68l257 100l-207 100l17 68zM381 64l-16 -64h-320l16 64h320z" />
    <glyph glyph-name="mu" unicode="&#xb5;" horiz-adv-x="716" 
d="M793 470l-117 -470h-225l12 49h-2c-19 -29 -44 -49 -76 -49h-109l-44 -178h-236l161 648h236l-86 -344c-5 -21 1 -34 26 -34h98c19 0 34 11 40 34l86 344h236z" />
    <glyph glyph-name="partialdiff" unicode="&#x2202;" horiz-adv-x="730" 
d="M793 435l-80 -324c-19 -76 -63 -111 -156 -111h-385c-84 0 -120 29 -99 111l39 156c19 77 61 111 157 111h235l38 -5l14 58c6 25 -9 38 -28 46l-209 93l144 70l307 -135c21 -9 31 -38 23 -70zM518 275c4 16 1 29 -26 29h-102c-27 0 -36 -13 -40 -29l-43 -172
c-4 -16 -2 -29 25 -29h102c27 0 37 13 41 29z" />
    <glyph glyph-name="summation" unicode="&#x2211;" horiz-adv-x="684" 
d="M730 633l-28 -157h-28c3 34 -6 58 -21 74c-13 13 -36 21 -82 21h-180l140 -268l-298 -268h275c35 0 57 6 77 22c18 15 46 45 58 72h28l-91 -219c-27 8 -48 13 -68 13h-400c-21 0 -45 -4 -89 -13l384 347l-200 392c36 -13 69 -16 89 -16h434z" />
    <glyph glyph-name="product" unicode="&#x220f;" horiz-adv-x="756" 
d="M866 640l-7 -28c-23 0 -82 -7 -102 -86l-127 -508c-15 -60 12 -70 63 -70l-7 -28h-280l7 28c51 0 82 10 97 70l141 564h-261l-141 -564c-15 -60 12 -70 63 -70l-7 -28h-280l7 28c51 0 82 10 97 70l127 508c20 79 -35 86 -58 86l7 28h661z" />
    <glyph glyph-name="pi" unicode="&#x3c0;" horiz-adv-x="484" 
d="M539 401l-20 -81h-95l-38 -108c-6 -17 -15 -38 -20 -58c-12 -50 -13 -78 15 -78c21 0 43 20 58 56h33c-28 -113 -91 -143 -127 -143c-37 0 -73 30 -46 140c4 17 18 61 23 75l42 116h-66l-65 -184c-17 -47 -61 -147 -109 -147c-29 0 -39 25 -33 49c9 36 64 53 82 104
l64 178h-24c-24 0 -41 -14 -66 -47h-34c29 59 86 128 146 128h280z" />
    <glyph glyph-name="integral" unicode="&#x222b;" horiz-adv-x="316" 
d="M438 669c-6 -25 -29 -43 -55 -43c-20 0 -18 19 -33 19c-7 0 -7 -6 -10 -19c-17 -67 -16 -120 -46 -240l-17 -68c-28 -111 -43 -180 -92 -295c-21 -50 -49 -103 -109 -103c-29 0 -45 23 -38 51c6 23 28 43 49 43c23 0 26 -24 35 -24c13 0 23 43 28 64c15 60 33 154 49 219
l46 185c21 83 47 159 78 211c17 28 44 51 72 51c32 0 51 -20 43 -51z" />
    <glyph glyph-name="Omega" unicode="&#x3a9;" horiz-adv-x="749" 
d="M783 381c-43 -172 -194 -234 -274 -253l-3 -12h129c44 0 73 27 87 70h28l-46 -185h-291l52 161c43 6 146 56 187 219c35 140 -11 221 -128 221c-115 0 -205 -89 -238 -221c-41 -163 39 -213 78 -219l-29 -161h-290l46 185h28c-6 -43 9 -70 53 -70h129l3 12
c-71 19 -192 80 -149 253c39 156 197 271 382 271s287 -107 246 -271z" />
    <glyph glyph-name="logicalnot" unicode="&#xac;" horiz-adv-x="522" 
d="M554 308l-54 -216h-64l38 152h-368l16 64h432z" />
    <glyph glyph-name="radical" unicode="&#x221a;" horiz-adv-x="441" 
d="M568 690l-273 -702l-83 361l-69 -29l-8 40l129 57l57 -249l208 528z" />
    <glyph glyph-name="approxequal" unicode="&#x2248;" horiz-adv-x="461" 
d="M488 289l-16 -16c-41 -41 -74 -53 -116 -53c-26 0 -44 7 -59 16l-38 23c-9 5 -18 9 -32 9c-21 0 -38 -6 -59 -27l-16 -16l-41 38l16 16c41 41 74 53 116 53c27 0 43 -7 59 -16l38 -22c7 -5 18 -10 32 -10c22 0 37 5 59 27l16 16zM450 137l-16 -16
c-41 -41 -74 -53 -116 -53c-26 0 -44 7 -59 16l-38 23c-9 5 -18 9 -32 9c-21 0 -38 -6 -59 -27l-16 -16l-41 38l16 16c41 41 74 53 116 53c27 0 43 -7 59 -16l38 -22c7 -5 18 -10 32 -10c22 0 37 5 59 27l16 16z" />
    <glyph glyph-name="Delta" unicode="&#x394;" horiz-adv-x="661" 
d="M615 1h-571l466 652zM483 68l-61 370l-262 -370h323z" />
    <glyph glyph-name="nbspace" unicode="&#xa0;" horiz-adv-x="720" 
 />
    <glyph glyph-name="Agrave" unicode="&#xc0;" horiz-adv-x="892" 
d="M853 0h-259l-30 172h-281l-127 -172h-118l466 640h244zM548 278l-37 216l-152 -216h189zM722 676h-137l-134 148h208z" />
    <glyph glyph-name="Atilde" unicode="&#xc3;" horiz-adv-x="892" 
d="M853 0h-259l-30 172h-281l-127 -172h-118l466 640h244zM548 278l-37 216l-152 -216h189zM836 815c-28 -78 -87 -141 -161 -141c-67 0 -90 39 -133 39c-24 0 -43 -19 -52 -37h-79c28 78 87 141 161 141c67 0 90 -39 133 -39c24 0 43 19 52 37h79z" />
    <glyph glyph-name="Otilde" unicode="&#xd5;" 
d="M850 463l-71 -286c-28 -111 -93 -177 -202 -177h-374c-109 0 -142 66 -114 177l71 286c28 111 94 177 203 177h374c109 0 141 -66 113 -177zM614 494c7 27 -3 40 -38 40h-106c-35 0 -51 -13 -58 -40l-87 -348c-7 -27 3 -40 38 -40h106c35 0 51 13 58 40zM780 815
c-28 -78 -87 -141 -161 -141c-67 0 -90 39 -133 39c-24 0 -43 -19 -52 -37h-79c28 78 87 141 161 141c67 0 90 -39 133 -39c24 0 43 19 52 37h79z" />
    <glyph glyph-name="divide" unicode="&#xf7;" horiz-adv-x="450" 
d="M352 316c-7 -26 -34 -48 -60 -48s-43 22 -36 48c6 26 34 48 60 48s42 -22 36 -48zM463 232l-16 -64h-360l16 64h360zM294 84c-7 -26 -34 -48 -60 -48s-43 22 -36 48c6 26 34 48 60 48s42 -22 36 -48z" />
    <glyph glyph-name="lozenge" unicode="&#x25ca;" horiz-adv-x="490" 
d="M525 322l-252 -322h-57l-91 322l251 318h57zM449 321l-66 233l-183 -233l67 -234z" />
    <glyph glyph-name="ydieresis" unicode="&#xff;" horiz-adv-x="706" 
d="M783 470l-127 -511c-23 -92 -78 -137 -167 -137h-483l23 92h336c30 0 45 8 52 35l24 97h-2c-15 -30 -38 -46 -78 -46h-166c-108 0 -139 67 -114 166l76 304h236l-86 -344c-5 -21 1 -34 26 -34h88c19 0 34 11 40 34l86 344h236zM722 666l-32 -130h-169l32 130h169z
M495 666l-32 -130h-169l32 130h169z" />
    <glyph glyph-name="Ydieresis" unicode="&#x178;" horiz-adv-x="825" 
d="M939 640l-353 -403l-59 -237h-244l62 250l-155 390h289l103 -266l233 266h124zM808 812l-32 -130h-169l32 130h169zM581 812l-32 -130h-169l32 130h169z" />
    <glyph glyph-name="Acircumflex" unicode="&#xc2;" horiz-adv-x="892" 
d="M853 0h-259l-30 172h-281l-127 -172h-118l466 640h244zM548 278l-37 216l-152 -216h189zM822 676h-147l-37 75l-75 -75h-147l157 148h166z" />
    <glyph glyph-name="Ecircumflex" unicode="&#xca;" horiz-adv-x="650" 
d="M769 640l-27 -106h-310l-37 -150h284l-27 -106h-284l-43 -172h310l-26 -106h-554l160 640h554zM700 676h-147l-37 75l-75 -75h-147l157 148h166z" />
    <glyph glyph-name="Aacute" unicode="&#xc1;" horiz-adv-x="892" 
d="M853 0h-259l-30 172h-281l-127 -172h-118l466 640h244zM548 278l-37 216l-152 -216h189zM820 824l-208 -148h-137l137 148h208z" />
    <glyph glyph-name="Edieresis" unicode="&#xcb;" horiz-adv-x="650" 
d="M769 640l-27 -106h-310l-37 -150h284l-27 -106h-284l-43 -172h310l-26 -106h-554l160 640h554zM728 812l-32 -130h-169l32 130h169zM501 812l-32 -130h-169l32 130h169z" />
    <glyph glyph-name="Egrave" unicode="&#xc8;" horiz-adv-x="650" 
d="M769 640l-27 -106h-310l-37 -150h284l-27 -106h-284l-43 -172h310l-26 -106h-554l160 640h554zM616 676h-137l-134 148h208z" />
    <glyph glyph-name="Iacute" unicode="&#xcd;" horiz-adv-x="354" 
d="M459 640l-160 -640h-244l160 640h244zM552 824l-208 -148h-137l137 148h208z" />
    <glyph glyph-name="Icircumflex" unicode="&#xce;" horiz-adv-x="354" 
d="M459 640l-160 -640h-244l160 640h244zM541 676h-147l-37 75l-75 -75h-147l157 148h166z" />
    <glyph glyph-name="Idieresis" unicode="&#xcf;" horiz-adv-x="354" 
d="M459 640l-160 -640h-244l160 640h244zM577 812l-32 -130h-169l32 130h169zM350 812l-32 -130h-169l32 130h169z" />
    <glyph glyph-name="Igrave" unicode="&#xcc;" horiz-adv-x="354" 
d="M459 640l-160 -640h-244l160 640h244zM433 676h-137l-134 148h208z" />
    <glyph glyph-name="Oacute" unicode="&#xd3;" 
d="M850 463l-71 -286c-28 -111 -93 -177 -202 -177h-374c-109 0 -142 66 -114 177l71 286c28 111 94 177 203 177h374c109 0 141 -66 113 -177zM614 494c7 27 -3 40 -38 40h-106c-35 0 -51 -13 -58 -40l-87 -348c-7 -27 3 -40 38 -40h106c35 0 51 13 58 40zM764 824
l-208 -148h-137l137 148h208z" />
    <glyph glyph-name="Ocircumflex" unicode="&#xd4;" 
d="M850 463l-71 -286c-28 -111 -93 -177 -202 -177h-374c-109 0 -142 66 -114 177l71 286c28 111 94 177 203 177h374c109 0 141 -66 113 -177zM614 494c7 27 -3 40 -38 40h-106c-35 0 -51 -13 -58 -40l-87 -348c-7 -27 3 -40 38 -40h106c35 0 51 13 58 40zM750 676h-147
l-37 75l-75 -75h-147l157 148h166z" />
    <glyph glyph-name="apple" unicode="&#xf8ff;" horiz-adv-x="640" 
d="M627 656c0 0 -2 -47 -62 -103c-60 -55 -107 -52 -107 -52s-1 47 58 101c61 56 111 54 111 54zM688 442c0 0 -84 -36 -109 -136s60 -131 60 -131s-112 -175 -196 -175c-68 0 -55 26 -101 26c-51 0 -59 -26 -111 -26c-96 0 -142 176 -112 298c42 168 186 205 227 205
c44 0 61 -24 104 -24c37 0 56 24 117 24c60 0 97 -19 121 -61z" />
    <glyph glyph-name="Ograve" unicode="&#xd2;" 
d="M850 463l-71 -286c-28 -111 -93 -177 -202 -177h-374c-109 0 -142 66 -114 177l71 286c28 111 94 177 203 177h374c109 0 141 -66 113 -177zM614 494c7 27 -3 40 -38 40h-106c-35 0 -51 -13 -58 -40l-87 -348c-7 -27 3 -40 38 -40h106c35 0 51 13 58 40zM642 676h-137
l-134 148h208z" />
    <glyph glyph-name="Uacute" unicode="&#xda;" horiz-adv-x="790" 
d="M895 640l-113 -450c-34 -136 -92 -190 -214 -190h-346c-98 0 -154 54 -120 190l113 450h244l-119 -476c-10 -41 5 -58 42 -58h216c43 0 59 9 70 52l121 482h106zM776 824l-208 -148h-137l137 148h208z" />
    <glyph glyph-name="Ucircumflex" unicode="&#xdb;" horiz-adv-x="790" 
d="M895 640l-113 -450c-34 -136 -92 -190 -214 -190h-346c-98 0 -154 54 -120 190l113 450h244l-119 -476c-10 -41 5 -58 42 -58h216c43 0 59 9 70 52l121 482h106zM769 676h-147l-37 75l-75 -75h-147l157 148h166z" />
    <glyph glyph-name="Ugrave" unicode="&#xd9;" horiz-adv-x="790" 
d="M895 640l-113 -450c-34 -136 -92 -190 -214 -190h-346c-98 0 -154 54 -120 190l113 450h244l-119 -476c-10 -41 5 -58 42 -58h216c43 0 59 9 70 52l121 482h106zM677 676h-137l-134 148h208z" />
    </font>
</defs>
</svg>
